<svg width="26" height="32" viewBox="0 0 26 32" fill="none" xmlns="http://www.w3.org/2000/svg">
<g filter="url(#filter0_d_110_147)">
<path d="M12.9062 13.4062L11.6406 15.3281C11.0781 14.625 9.90625 14.6719 9.39062 15.4219L7.1875 18.7969C6.90625 19.2656 6.90625 19.8281 7.14062 20.25C7.375 20.7188 7.84375 21 8.35938 21H17.5469C18.0625 21 18.5312 20.7188 18.7656 20.25C19 19.7812 19 19.2656 18.7188 18.7969L15.2031 13.4062C14.7344 12.6094 13.4219 12.6094 12.9062 13.4062ZM17.4062 19.5H8.45312L10.5625 16.4062L11.0312 17.1094C11.3125 17.5312 12.0156 17.5312 12.2969 17.1094L14.0781 14.3438L17.4062 19.5ZM8.5 13.125C9.10938 13.125 9.625 12.6562 9.625 12C9.625 11.3906 9.10938 10.875 8.5 10.875C7.84375 10.875 7.375 11.3906 7.375 12C7.375 12.6562 7.84375 13.125 8.5 13.125ZM21.1094 5.90625L16.0938 0.890625C15.5312 0.328125 14.7812 0 13.9844 0H7C5.3125 0 4 1.35938 4 3V21C4 22.6875 5.3125 24 7 24H19C20.6406 24 22 22.6875 22 21V8.01562C22 7.21875 21.6719 6.46875 21.1094 5.90625ZM14.5 1.64062C14.6875 1.6875 14.875 1.78125 15.0625 1.96875L20.0312 6.9375C20.2188 7.125 20.3125 7.3125 20.3594 7.5H15.25C14.8281 7.5 14.5 7.17188 14.5 6.75V1.64062ZM20.5 21C20.5 21.8438 19.7969 22.5 19 22.5H7C6.15625 22.5 5.5 21.8438 5.5 21V3C5.5 2.20312 6.15625 1.5 7 1.5H13V6.75C13 8.01562 13.9844 9 15.25 9H20.5V21Z" fill="#48BB78"/>
</g>
<defs>
<filter id="filter0_d_110_147" x="0" y="0" width="26" height="32" filterUnits="userSpaceOnUse" color-interpolation-filters="sRGB">
<feFlood flood-opacity="0" result="BackgroundImageFix"/>
<feColorMatrix in="SourceAlpha" type="matrix" values="0 0 0 0 0 0 0 0 0 0 0 0 0 0 0 0 0 0 127 0" result="hardAlpha"/>
<feOffset dy="4"/>
<feGaussianBlur stdDeviation="2"/>
<feComposite in2="hardAlpha" operator="out"/>
<feColorMatrix type="matrix" values="0 0 0 0 0 0 0 0 0 0 0 0 0 0 0 0 0 0 0.25 0"/>
<feBlend mode="normal" in2="BackgroundImageFix" result="effect1_dropShadow_110_147"/>
<feBlend mode="normal" in="SourceGraphic" in2="effect1_dropShadow_110_147" result="shape"/>
</filter>
</defs>
</svg>
