<svg width="26" height="32" viewBox="0 0 26 32" fill="none" xmlns="http://www.w3.org/2000/svg">
<g filter="url(#filter0_d_21_1336)">
<path d="M21.1094 5.90625L16.0938 0.890625C15.5312 0.328125 14.7812 0 13.9844 0H7C5.3125 0 4 1.35938 4 3V21C4 22.6875 5.3125 24 7 24H19C20.6406 24 22 22.6875 22 21V8.01562C22 7.21875 21.6719 6.46875 21.1094 5.90625ZM14.5 1.64062C14.6875 1.6875 14.875 1.78125 15.0625 1.96875L20.0312 6.9375C20.2188 7.125 20.3125 7.3125 20.3594 7.5H15.25C14.8281 7.5 14.5 7.17188 14.5 6.75V1.64062ZM20.5 21C20.5 21.8438 19.7969 22.5 19 22.5H7C6.15625 22.5 5.5 21.8438 5.5 21V3C5.5 2.20312 6.15625 1.5 7 1.5H13V6.75C13 8.01562 13.9844 9 15.25 9H20.5V21ZM13.4688 13.5938C13.9375 12.0938 13.9844 10.9219 13.9844 10.6875C13.9844 9.75 13.2344 9 12.2969 9C11.4062 9 10.6562 9.75 10.6562 10.6875C10.6562 10.6875 10.6562 12.0469 11.3125 13.6875C10.9844 14.5781 10.5625 15.5156 10.0938 16.4062C9.01562 16.9219 8.125 17.4844 7.46875 18.1406C7.14062 18.4688 7 18.8906 7 19.3594C7 20.2969 7.70312 21 8.64062 21C9.15625 21 9.67188 20.7656 10 20.3438C10.2812 19.9688 10.8438 19.125 11.5 18C12.2969 17.6719 13.1875 17.4375 14.2188 17.2031C14.7812 17.5781 16.1875 18.4219 17.1719 18.4219C18.2031 18.4219 19 17.625 19 16.6406C19 15.6562 18.1562 14.8125 17.125 14.8125C16.375 14.8125 15.25 15 14.6875 15.0938C14.2188 14.6719 13.7969 14.1562 13.4688 13.5938ZM8.92188 19.5469C8.73438 19.7812 8.3125 19.6875 8.3125 19.3125C8.3125 19.2188 8.35938 19.1719 8.40625 19.125C8.82812 18.6562 9.39062 18.2812 9.95312 17.9531C9.48438 18.75 9.10938 19.2656 8.92188 19.5469ZM12.2969 10.3594C12.4844 10.3594 12.625 10.5 12.625 10.6875C12.625 11.3906 12.4375 12.3281 12.3438 12.7031C11.9688 11.625 11.9688 10.7344 11.9688 10.6875C11.9688 10.5 12.1094 10.3594 12.2969 10.3594ZM11.5 16.5469C11.8281 15.9375 12.1562 15.1875 12.4844 14.4375C12.7656 14.9531 13.1875 15.4688 13.7031 15.9375C13 16.125 12.25 16.3125 11.5 16.5469ZM17.125 16.1719C17.4062 16.1719 17.6406 16.3594 17.6406 16.6875C17.6406 16.9219 17.4531 17.1094 17.1719 17.1094C16.75 17.1094 15.7656 16.6406 15.2969 16.3594C15.3438 16.3594 16.5625 16.1719 17.125 16.1719Z" fill="#F56565"/>
</g>
<defs>
<filter id="filter0_d_21_1336" x="0" y="0" width="26" height="32" filterUnits="userSpaceOnUse" color-interpolation-filters="sRGB">
<feFlood flood-opacity="0" result="BackgroundImageFix"/>
<feColorMatrix in="SourceAlpha" type="matrix" values="0 0 0 0 0 0 0 0 0 0 0 0 0 0 0 0 0 0 127 0" result="hardAlpha"/>
<feOffset dy="4"/>
<feGaussianBlur stdDeviation="2"/>
<feComposite in2="hardAlpha" operator="out"/>
<feColorMatrix type="matrix" values="0 0 0 0 0 0 0 0 0 0 0 0 0 0 0 0 0 0 0.25 0"/>
<feBlend mode="normal" in2="BackgroundImageFix" result="effect1_dropShadow_21_1336"/>
<feBlend mode="normal" in="SourceGraphic" in2="effect1_dropShadow_21_1336" result="shape"/>
</filter>
</defs>
</svg>
