<svg width="26" height="32" viewBox="0 0 26 32" fill="none" xmlns="http://www.w3.org/2000/svg">
<g filter="url(#filter0_d_110_53)">
<path d="M21.1094 5.90625L16.0938 0.890625C15.5312 0.328125 14.7812 0 13.9844 0H7C5.3125 0 4 1.35938 4 3V21C4 22.6875 5.3125 24 7 24H19C20.6406 24 22 22.6875 22 21V8.01562C22 7.21875 21.6719 6.46875 21.1094 5.90625ZM14.5 1.64062C14.6875 1.6875 14.875 1.78125 15.0625 1.96875L20.0312 6.9375C20.2188 7.125 20.3125 7.3125 20.3594 7.5H15.25C14.8281 7.5 14.5 7.17188 14.5 6.75V1.64062ZM20.5 21C20.5 21.8438 19.7969 22.5 19 22.5H7C6.15625 22.5 5.5 21.8438 5.5 21V3C5.5 2.20312 6.15625 1.5 7 1.5H13V6.75C13 8.01562 13.9844 9 15.25 9H20.5V21ZM13 14.4844L10.9844 11.5781C10.75 11.25 10.2812 11.1562 9.90625 11.3906C9.57812 11.625 9.48438 12.0938 9.71875 12.4688L12.0625 15.75L9.71875 19.0781C9.48438 19.4531 9.57812 19.9219 9.90625 20.1562C10.0469 20.25 10.1875 20.25 10.3281 20.25C10.5625 20.25 10.7969 20.1562 10.9375 19.9688L13 17.0625L14.9688 19.9688C15.1094 20.1562 15.3438 20.25 15.625 20.25C15.7656 20.25 15.9062 20.25 16.0469 20.1562C16.375 19.9219 16.4688 19.4531 16.2344 19.0781L13.8906 15.75L16.2344 12.4688C16.4688 12.0938 16.375 11.625 16.0469 11.3906C15.6719 11.1562 15.2031 11.25 14.9688 11.5781L13 14.4844Z" fill="#9F7AEA"/>
</g>
<defs>
<filter id="filter0_d_110_53" x="0" y="0" width="26" height="32" filterUnits="userSpaceOnUse" color-interpolation-filters="sRGB">
<feFlood flood-opacity="0" result="BackgroundImageFix"/>
<feColorMatrix in="SourceAlpha" type="matrix" values="0 0 0 0 0 0 0 0 0 0 0 0 0 0 0 0 0 0 127 0" result="hardAlpha"/>
<feOffset dy="4"/>
<feGaussianBlur stdDeviation="2"/>
<feComposite in2="hardAlpha" operator="out"/>
<feColorMatrix type="matrix" values="0 0 0 0 0 0 0 0 0 0 0 0 0 0 0 0 0 0 0.25 0"/>
<feBlend mode="normal" in2="BackgroundImageFix" result="effect1_dropShadow_110_53"/>
<feBlend mode="normal" in="SourceGraphic" in2="effect1_dropShadow_110_53" result="shape"/>
</filter>
</defs>
</svg>
